<svg xmlns="http://www.w3.org/2000/svg" xmlns:xlink="http://www.w3.org/1999/xlink" width="130" height="28.876" viewBox="0 0 130 28.876">
  <defs>
    <linearGradient id="linear-gradient" x1="1" y1="1" x2="0.028" y2="1" gradientUnits="objectBoundingBox">
      <stop offset="0" stop-color="#ea81da"/>
      <stop offset="1" stop-color="#62a5b5"/>
    </linearGradient>
  </defs>
  <path id="Path_45" data-name="Path 45" d="M20.954,36.541v2.822h3.827l3.17-14.921H16.238l-.966,4.523H21.65a12.311,12.311,0,0,1-.986,2.416,6.53,6.53,0,0,1-1.508,1.875,6.8,6.8,0,0,1-2.165,1.218,9,9,0,0,1-3,.445,6.384,6.384,0,0,1-2.841-.58,5.377,5.377,0,0,1-1.933-1.566A6.762,6.762,0,0,1,8.1,30.51,9.737,9.737,0,0,1,7.734,27.8a15.922,15.922,0,0,1,.541-4.04,12.615,12.615,0,0,1,1.643-3.75,8.968,8.968,0,0,1,2.822-2.745,7.528,7.528,0,0,1,4.04-1.063,6.737,6.737,0,0,1,4.02,1.063,4.429,4.429,0,0,1,1.585,3.614h6.069a9.628,9.628,0,0,0-.928-4.387,8.614,8.614,0,0,0-2.513-3.034A10.787,10.787,0,0,0,21.3,11.685a17.277,17.277,0,0,0-4.561-.58A14.137,14.137,0,0,0,5.7,16.111a16.431,16.431,0,0,0-3,5.315A19.361,19.361,0,0,0,1.665,27.8q0,5.914,3.189,9.045t9.065,3.131a9.378,9.378,0,0,0,3.788-.792,7.79,7.79,0,0,0,3.17-2.648Zm18.362-5.257a11.7,11.7,0,0,1,.348-2.725,10.4,10.4,0,0,1,1.044-2.687,6.627,6.627,0,0,1,1.8-2.068,4.209,4.209,0,0,1,2.609-.831,3.666,3.666,0,0,1,3.112,1.2,5.183,5.183,0,0,1,.908,3.208,11.946,11.946,0,0,1-.348,2.745,10.253,10.253,0,0,1-1.063,2.725,6.78,6.78,0,0,1-1.817,2.087,4.27,4.27,0,0,1-2.648.831,3.756,3.756,0,0,1-1.7-.367,3.71,3.71,0,0,1-1.237-.986,4.221,4.221,0,0,1-.754-1.43A5.719,5.719,0,0,1,39.316,31.283Zm-5.489,0q0,4.291,2.493,6.436a9.872,9.872,0,0,0,6.668,2.145,11.788,11.788,0,0,0,4.89-.966,10.674,10.674,0,0,0,3.653-2.667,11.7,11.7,0,0,0,2.3-4,15.028,15.028,0,0,0,.792-4.929,9.507,9.507,0,0,0-.676-3.75,6.944,6.944,0,0,0-1.913-2.629,8.225,8.225,0,0,0-2.957-1.566,12.936,12.936,0,0,0-3.769-.522,11.265,11.265,0,0,0-4.793.986A10.743,10.743,0,0,0,36.9,22.509a11.947,11.947,0,0,0-2.281,3.962A14.448,14.448,0,0,0,33.827,31.283Zm32.278,0a11.7,11.7,0,0,1,.348-2.725A10.4,10.4,0,0,1,67.5,25.872a6.627,6.627,0,0,1,1.8-2.068,4.21,4.21,0,0,1,2.609-.831,3.666,3.666,0,0,1,3.112,1.2,5.183,5.183,0,0,1,.908,3.208,11.947,11.947,0,0,1-.348,2.745,10.253,10.253,0,0,1-1.063,2.725A6.779,6.779,0,0,1,72.7,34.936a4.27,4.27,0,0,1-2.648.831,3.756,3.756,0,0,1-1.7-.367,3.71,3.71,0,0,1-1.237-.986,4.221,4.221,0,0,1-.754-1.43A5.719,5.719,0,0,1,66.1,31.283Zm-5.489,0q0,4.291,2.493,6.436a9.872,9.872,0,0,0,6.668,2.145,11.788,11.788,0,0,0,4.89-.966,10.674,10.674,0,0,0,3.653-2.667,11.7,11.7,0,0,0,2.3-4,15.028,15.028,0,0,0,.792-4.929,9.507,9.507,0,0,0-.676-3.75,6.944,6.944,0,0,0-1.913-2.629,8.225,8.225,0,0,0-2.957-1.566,12.937,12.937,0,0,0-3.769-.522,11.265,11.265,0,0,0-4.793.986,10.743,10.743,0,0,0-3.614,2.687,11.947,11.947,0,0,0-2.281,3.962A14.448,14.448,0,0,0,60.615,31.283Zm40.009-6.069h5.1a6.447,6.447,0,0,0-.618-3.17,5.054,5.054,0,0,0-1.8-1.952,7.388,7.388,0,0,0-2.648-.986,17.7,17.7,0,0,0-3.131-.271,14.59,14.59,0,0,0-3,.329,9.788,9.788,0,0,0-2.88,1.082A6.514,6.514,0,0,0,89.511,22.2a5.1,5.1,0,0,0-.831,2.977,6.029,6.029,0,0,0,.29,2.01,3.823,3.823,0,0,0,.85,1.392,4.766,4.766,0,0,0,1.353.966,15.1,15.1,0,0,0,1.836.734l4.213,1.353a4.934,4.934,0,0,1,1.43.734,1.764,1.764,0,0,1,.541,1.469,1.953,1.953,0,0,1-.309,1.14,2.482,2.482,0,0,1-.812.734,3.524,3.524,0,0,1-1.121.406,6.7,6.7,0,0,1-1.237.116,5.954,5.954,0,0,1-1.411-.174,4.707,4.707,0,0,1-1.276-.5,2.821,2.821,0,0,1-.908-.831,2.053,2.053,0,0,1-.348-1.2v-.657H86.708v.812a5.286,5.286,0,0,0,.773,2.957,5.957,5.957,0,0,0,1.991,1.894A8.85,8.85,0,0,0,92.2,39.556a14.784,14.784,0,0,0,2.977.309,17.124,17.124,0,0,0,3.44-.348,9.64,9.64,0,0,0,3.054-1.16,6.573,6.573,0,0,0,2.184-2.107,5.712,5.712,0,0,0,.831-3.15,5.363,5.363,0,0,0-.406-2.165,4.868,4.868,0,0,0-1.121-1.6,6.664,6.664,0,0,0-1.662-1.14,14.4,14.4,0,0,0-2.068-.812l-2.745-.889a5.93,5.93,0,0,1-1.952-.889,1.409,1.409,0,0,1-.561-1.121,1.557,1.557,0,0,1,.947-1.527,5.7,5.7,0,0,1,2.416-.445,3.215,3.215,0,0,1,2.339.715A2.819,2.819,0,0,1,100.624,25.214Zm25.745,2.01h-9.161a10.337,10.337,0,0,1,.754-1.624,5.341,5.341,0,0,1,1.1-1.353,5.146,5.146,0,0,1,1.546-.928,5.6,5.6,0,0,1,2.049-.348,4.341,4.341,0,0,1,1.933.367,2.712,2.712,0,0,1,1.121.986,3.843,3.843,0,0,1,.522,1.372A8.626,8.626,0,0,1,126.369,27.225ZM116.628,30.7h14.728a17.157,17.157,0,0,0,.309-3.131,9.943,9.943,0,0,0-.676-3.808,7.477,7.477,0,0,0-1.894-2.745,7.8,7.8,0,0,0-2.938-1.643,12.645,12.645,0,0,0-3.808-.541,10.143,10.143,0,0,0-4.6,1.024,10.474,10.474,0,0,0-3.46,2.745,12.773,12.773,0,0,0-2.184,3.943,13.961,13.961,0,0,0-.773,4.619,10.324,10.324,0,0,0,.638,3.788,7.457,7.457,0,0,0,1.8,2.725,7.337,7.337,0,0,0,2.8,1.643,11.63,11.63,0,0,0,3.653.541,15.277,15.277,0,0,0,3.808-.425,8.781,8.781,0,0,0,2.88-1.295A8.627,8.627,0,0,0,129.036,36a14.026,14.026,0,0,0,1.546-2.977h-5.489q-.309.464-.676.966a4.636,4.636,0,0,1-.85.889,4.307,4.307,0,0,1-1.121.638,3.93,3.93,0,0,1-1.45.251,4.527,4.527,0,0,1-3.324-1.082,3.817,3.817,0,0,1-1.082-2.822v-.812A1.792,1.792,0,0,1,116.628,30.7Z" transform="translate(-1.665 -11.105)" fill="url(#linear-gradient)"/>
</svg>
